<?xml version="1.0" encoding="UTF-8" standalone="no"?>
<svg
        xmlns:dc="http://purl.org/dc/elements/1.1/"
        xmlns:cc="http://creativecommons.org/ns#"
        xmlns:rdf="http://www.w3.org/1999/02/22-rdf-syntax-ns#"
        xmlns:sodipodi="http://sodipodi.sourceforge.net/DTD/sodipodi-0.dtd"
        xmlns:inkscape="http://www.inkscape.org/namespaces/inkscape"
        xmlns="http://www.w3.org/2000/svg"
        width="16"
        height="16"
        viewBox="0 0 16 16"
        version="1.1"
        id="svg8"
        sodipodi:docname="CoverageRunAction.svg"
        inkscape:version="0.92.1 r15371">
  <metadata
          id="metadata14">
    <rdf:RDF>
      <cc:Work
              rdf:about="">
        <dc:format>image/svg+xml</dc:format>
        <dc:type
                rdf:resource="http://purl.org/dc/dcmitype/StillImage"/>
      </cc:Work>
    </rdf:RDF>
  </metadata>
  <defs
          id="defs12"/>
  <sodipodi:namedview
          pagecolor="#ffffff"
          bordercolor="#666666"
          borderopacity="1"
          objecttolerance="10"
          gridtolerance="10"
          guidetolerance="10"
          inkscape:pageopacity="0"
          inkscape:pageshadow="2"
          inkscape:window-width="1920"
          inkscape:window-height="1017"
          id="namedview10"
          showgrid="false"
          inkscape:zoom="41.7193"
          inkscape:cx="9.1161225"
          inkscape:cy="8.2607113"
          inkscape:window-x="-8"
          inkscape:window-y="-8"
          inkscape:window-maximized="1"
          inkscape:current-layer="svg8"/>
  <g
          fill="none"
          fill-rule="evenodd"
          id="g6">
    <polygon
            fill="#59A869"
            points="9 7 16 11.5 9 16"
            id="polygon2"/>
    <path
            fill="#6E6E6E"
            d="M6,11.9992902 C6.8443714,11.5381944 7.51103807,11.0489051 8,10.5314223 L8,12.8554895 C7.4171227,13.2490603 6.74973379,13.6305638 5.99783325,14 C2.84203084,12.449056 1.17608643,10.6823893 1,8.69999981 L1,3 L6,2 L11,3 L11,6 L9,6 L9,4.59500122 L6,4 L6,11.9992902 Z"
            id="path4"/>
  </g>
  <g
          id="g3830"
          transform="matrix(0.02031984,0,0,0.02031984,0.41541709,8.1552845)">
    <path
            id="path3796"
            d="M 302.107,258.262 C 304.508,254.103 306,249.417 306,245.209 V 99.14 c 0,-4.208 -1.49,-8.893 -3.892,-13.052 L 153,172.175 Z"
            inkscape:connector-curvature="0"
            style="fill:#00599c"/>
    <path
            id="path3798"
            d="m 166.25,341.193 126.5,-73.034 c 3.644,-2.104 6.956,-5.737 9.357,-9.897 L 153,172.175 3.893,258.263 c 2.401,4.159 5.714,7.793 9.357,9.896 l 126.5,73.034 c 7.287,4.208 19.213,4.208 26.5,0 z"
            inkscape:connector-curvature="0"
            style="fill:#004482"/>
    <path
            id="path3800"
            d="m 302.108,86.087 c -2.402,-4.16 -5.715,-7.793 -9.358,-9.897 L 166.25,3.156 c -7.287,-4.208 -19.213,-4.208 -26.5,0 L 13.25,76.19 C 5.962,80.397 0,90.725 0,99.14 v 146.069 c 0,4.208 1.491,8.894 3.893,13.053 L 153,172.175 Z"
            inkscape:connector-curvature="0"
            style="fill:#659ad2"/>
    <g
            id="g3804">
      <path
              id="path3802"
              d="m 153,274.175 c -56.243,0 -102,-45.757 -102,-102 0,-56.243 45.757,-102 102,-102 36.292,0 70.139,19.53 88.331,50.968 l -44.143,25.544 C 188.083,130.951 171.15,121.175 153,121.175 c -28.122,0 -51,22.878 -51,51 0,28.121 22.878,51 51,51 18.152,0 35.085,-9.776 44.191,-25.515 l 44.143,25.543 c -18.192,31.441 -52.04,50.972 -88.334,50.972 z"
              inkscape:connector-curvature="0"
              style="fill:#ffffff"/>
    </g>
    <g
            id="g3808">
      <polygon
              id="polygon3806"
              points="243.666,189.175 243.666,177.841 255,177.841 255,166.508 243.666,166.508 243.666,155.175 232.334,155.175 232.334,166.508 221,166.508 221,177.841 232.334,177.841 232.334,189.175 "
              style="fill:#ffffff"/>
    </g>
    <g
            id="g3812">
      <polygon
              id="polygon3810"
              points="286.166,189.175 286.166,177.841 297.5,177.841 297.5,166.508 286.166,166.508 286.166,155.175 274.834,155.175 274.834,166.508 263.5,166.508 263.5,177.841 274.834,177.841 274.834,189.175 "
              style="fill:#ffffff"/>
    </g>
  </g>
</svg>
